<?xml version="1.0" standalone="no"?>
<!DOCTYPE svg PUBLIC "-//W3C//DTD SVG 20010904//EN"
 "http://www.w3.org/TR/2001/REC-SVG-20010904/DTD/svg10.dtd">
<svg version="1.0" xmlns="http://www.w3.org/2000/svg"
 width="512.000000pt" height="512.000000pt" viewBox="0 0 512.000000 512.000000"
 preserveAspectRatio="xMidYMid meet">

<g transform="translate(0.000000,512.000000) scale(0.100000,-0.100000)"
fill="#000000" stroke="none">
<path d="M1825 4946 c-291 -67 -465 -260 -510 -562 -6 -41 -7 -42 -58 -48 -78
-11 -194 -52 -272 -98 -196 -115 -318 -332 -319 -568 0 -102 17 -178 60 -262
13 -26 24 -51 24 -56 0 -4 -17 -14 -37 -21 -133 -46 -277 -171 -335 -292 -50
-104 -63 -165 -63 -304 0 -97 5 -135 24 -195 43 -139 124 -249 232 -316 32
-20 59 -40 59 -43 0 -3 -9 -34 -20 -68 -69 -222 -29 -428 107 -553 55 -50 151
-105 226 -129 l37 -13 0 -77 c0 -257 137 -440 372 -500 l72 -19 2 -78 c1 -44
7 -99 14 -124 48 -182 231 -364 430 -430 91 -30 235 -37 324 -16 194 46 329
164 399 351 25 66 27 81 27 233 l0 162 273 0 274 0 12 -39 c15 -51 87 -130
144 -159 221 -110 474 58 455 302 -17 205 -229 338 -423 265 -69 -26 -144 -97
-171 -161 l-19 -48 -272 0 -273 0 0 190 0 190 658 0 657 -1 75 -83 c41 -45
115 -126 163 -178 l88 -96 -31 -48 c-59 -97 -60 -210 -3 -317 120 -220 449
-204 555 28 33 72 32 191 -1 259 -55 111 -162 179 -279 177 -37 -1 -76 -3 -88
-4 -16 -1 -66 47 -204 198 -101 110 -195 205 -209 212 -19 9 -197 12 -703 13
l-678 0 0 205 0 205 764 0 764 0 12 -35 c18 -53 101 -139 162 -166 72 -32 183
-33 249 -2 63 29 125 87 157 147 23 44 27 63 27 141 0 75 -4 97 -23 133 -35
66 -88 119 -150 149 -76 37 -181 38 -259 4 -62 -28 -136 -102 -163 -166 l-19
-45 -761 0 -760 0 0 350 0 350 760 0 759 0 26 -55 c63 -132 216 -206 354 -171
110 28 183 92 221 194 55 147 -11 315 -154 390 -44 23 -63 27 -136 27 -70 0
-94 -4 -135 -25 -63 -31 -128 -97 -151 -155 l-19 -45 -762 0 -763 0 0 230 0
230 690 0 691 0 38 38 c21 20 111 117 200 214 l161 176 37 -10 c125 -34 286
49 346 181 30 65 30 187 0 252 -91 200 -353 248 -508 94 -87 -87 -115 -232
-67 -340 13 -27 30 -57 39 -67 18 -21 29 -7 -171 -226 l-139 -152 -658 0 -659
0 0 190 0 190 270 0 269 0 26 -55 c33 -69 109 -138 176 -160 218 -73 433 89
417 314 -19 264 -338 387 -526 203 -26 -26 -57 -68 -68 -94 l-19 -48 -272 0
-273 0 0 103 c-1 202 -52 339 -174 461 -80 81 -154 124 -266 156 -96 28 -270
35 -355 16z m268 -161 c96 -20 168 -55 228 -111 60 -57 94 -113 120 -195 18
-56 19 -99 19 -576 l0 -515 -62 57 c-106 95 -276 163 -391 156 -51 -3 -77 -91
-38 -130 10 -10 46 -23 82 -30 146 -25 279 -125 339 -253 67 -145 64 -95 68
-1041 l3 -858 -21 11 c-11 6 -44 35 -73 63 -59 59 -107 149 -137 258 -22 79
-44 306 -35 350 7 31 -15 83 -40 93 -35 13 -72 6 -96 -20 -23 -25 -24 -31 -23
-152 2 -139 21 -262 59 -374 14 -40 25 -73 25 -74 0 -1 -51 -1 -112 -1 -153 1
-223 -9 -255 -37 -36 -31 -35 -82 3 -114 25 -22 33 -23 93 -17 105 11 251 7
316 -10 118 -31 207 -102 257 -203 l33 -67 0 -200 c0 -195 -1 -201 -26 -256
-50 -107 -131 -172 -254 -204 -106 -27 -212 -16 -321 36 -83 39 -182 132 -225
211 -31 59 -34 69 -34 153 1 50 4 113 9 140 11 71 -12 92 -120 105 -147 16
-258 78 -304 170 -54 108 -50 308 9 403 45 74 145 126 281 146 59 9 80 17 98
37 38 43 24 102 -29 122 -51 20 -239 -23 -329 -76 -61 -35 -136 -107 -167
-159 -14 -24 -30 -43 -36 -43 -26 0 -138 61 -177 96 -62 57 -83 104 -88 204
-6 119 13 188 103 362 84 165 155 336 155 374 0 34 -42 74 -78 74 -45 0 -68
-27 -105 -125 -19 -50 -51 -123 -71 -163 l-37 -73 -40 23 c-56 31 -126 109
-154 171 -57 124 -57 317 1 436 60 122 201 220 377 261 207 48 363 3 515 -147
58 -58 80 -73 103 -73 39 0 79 40 79 78 0 33 -59 111 -120 161 -84 67 -105
235 -46 365 32 73 33 100 1 131 -27 28 -70 32 -101 10 -45 -31 -94 -189 -94
-300 l0 -72 -62 14 c-35 7 -102 12 -150 11 -101 -2 -107 1 -148 82 -40 79 -54
165 -41 251 35 224 171 373 397 434 80 22 245 30 314 16 120 -25 220 -94 287
-198 41 -64 71 -86 107 -77 32 8 66 49 66 78 0 37 -61 129 -129 196 -82 81
-186 135 -308 159 l-88 18 3 34 c6 56 41 151 77 205 103 157 324 235 538 189z
m2486 -422 c48 -37 66 -71 66 -128 0 -58 -18 -91 -69 -129 -40 -30 -120 -29
-165 3 -42 30 -75 101 -67 145 21 110 151 171 235 109z m-1035 -106 c130 -75
78 -281 -72 -281 -91 0 -152 61 -152 151 0 120 120 190 224 130z m981 -1162
c94 -54 101 -176 16 -248 -45 -37 -101 -44 -156 -17 -57 28 -85 72 -85 137 0
121 121 189 225 128z m5 -854 c95 -69 92 -202 -6 -258 -103 -59 -224 11 -224
130 0 64 27 108 83 137 49 24 106 21 147 -9z m-994 -1107 c127 -60 101 -254
-37 -283 -55 -12 -100 4 -141 48 -34 36 -38 46 -38 93 0 121 109 193 216 142z
m1044 -116 c68 -47 88 -131 47 -202 -75 -132 -281 -79 -281 72 0 90 60 150
150 151 37 1 60 -5 84 -21z"/>
<path d="M1239 2561 c-17 -13 -23 -29 -23 -56 0 -33 7 -44 49 -82 54 -47 151
-101 235 -129 78 -27 308 -27 398 0 95 29 127 82 81 140 -24 30 -53 33 -144
11 -33 -8 -96 -15 -140 -15 -127 0 -223 32 -317 106 -63 49 -101 56 -139 25z"/>
</g>
</svg>
