<?xml version="1.0" encoding="UTF-8"?>
<!DOCTYPE svg PUBLIC "-//W3C//DTD SVG 1.1//EN" "http://www.w3.org/Graphics/SVG/1.1/DTD/svg11.dtd">
<svg xmlns="http://www.w3.org/2000/svg" version="1.1" width="800px" height="503px" style="shape-rendering:geometricPrecision; text-rendering:geometricPrecision; image-rendering:optimizeQuality; fill-rule:evenodd; clip-rule:evenodd" xmlns:xlink="http://www.w3.org/1999/xlink">
<g><path style="opacity:1" fill="#1f1f1d" d="M 211.5,183.5 C 221.167,183.5 230.833,183.5 240.5,183.5C 240.333,221.168 240.5,258.835 241,296.5C 262.102,297.161 283.268,297.828 304.5,298.5C 306.427,306.632 307.094,314.965 306.5,323.5C 274.865,324.478 243.198,324.811 211.5,324.5C 211.5,277.5 211.5,230.5 211.5,183.5 Z"/></g>
<g><path style="opacity:1" fill="#1e1e1c" d="M 427.5,183.5 C 436.506,183.334 445.506,183.5 454.5,184C 455,184.5 455.5,185 456,185.5C 467.262,217.187 479.096,248.52 491.5,279.5C 503.363,246.312 515.197,214.645 527,184.5C 536.847,183.178 547.014,183.178 557.5,184.5C 557.663,186.857 557.497,189.19 557,191.5C 540.38,235.495 523.547,279.828 506.5,324.5C 495.974,324.815 485.307,324.481 474.5,323.5C 458.661,279.418 442.494,236.085 426,193.5C 423.51,189.481 424.01,186.147 427.5,183.5 Z"/></g>
<g><path style="opacity:1" fill="#1f1f1d" d="M 570.5,183.5 C 601.84,183.167 633.174,183.5 664.5,184.5C 665.633,192.117 665.8,199.784 665,207.5C 664.626,208.416 664.126,209.25 663.5,210C 642.5,210.333 621.5,210.667 600.5,211C 599.518,219.081 599.184,227.248 599.5,235.5C 618.512,235.167 637.512,235.5 656.5,236.5C 657.934,237.23 659.1,238.23 660,239.5C 660.736,247.535 660.569,255.535 659.5,263.5C 639.534,264.464 619.534,264.798 599.5,264.5C 599.18,275.415 599.513,286.248 600.5,297C 621.508,297.167 642.508,297.667 663.5,298.5C 663.808,299.308 664.308,299.975 665,300.5C 665.667,307.833 665.667,315.167 665,322.5C 664.25,323.126 663.416,323.626 662.5,324C 631.835,324.5 601.168,324.667 570.5,324.5C 569.167,277.5 569.167,230.5 570.5,183.5 Z"/></g>
<g><path style="opacity:1" fill="#11aad9" d="M 151.5,254.5 C 104.833,254.5 58.1667,254.5 11.5,254.5C 11.5,230.833 11.5,207.167 11.5,183.5C 57.8345,183.333 104.168,183.5 150.5,184C 151.494,207.425 151.827,230.925 151.5,254.5 Z"/></g>
<g><path style="opacity:1" fill="#1f1f1d" d="M 319.5,183.5 C 350.531,183.189 381.531,183.523 412.5,184.5C 413.094,193.035 412.427,201.368 410.5,209.5C 389.511,210.5 368.511,210.833 347.5,210.5C 347.5,218.833 347.5,227.167 347.5,235.5C 366.179,235.167 384.845,235.5 403.5,236.5C 404.934,237.23 406.1,238.23 407,239.5C 407.667,246.833 407.667,254.167 407,261.5C 406.228,262.849 405.061,263.682 403.5,264C 384.836,264.5 366.17,264.667 347.5,264.5C 347.5,275.5 347.5,286.5 347.5,297.5C 368.997,296.86 390.33,297.526 411.5,299.5C 412.833,307.833 412.833,316.167 411.5,324.5C 380.635,324.821 349.635,324.488 318.5,323.5C 318.167,300.333 317.833,277.167 317.5,254C 317.51,230.285 318.177,206.785 319.5,183.5 Z"/></g>
<g><path style="opacity:1" fill="#1f1f1d" d="M 692.5,183.5 C 700.84,183.334 709.173,183.5 717.5,184C 718.416,184.374 719.25,184.874 720,185.5C 720.5,222.832 720.667,260.165 720.5,297.5C 741.899,296.851 763.065,297.518 784,299.5C 784.167,303.5 784.333,307.5 784.5,311.5C 784.463,315.925 783.796,320.091 782.5,324C 752.125,324.825 721.791,324.659 691.5,323.5C 691.167,300.333 690.833,277.167 690.5,254C 690.51,230.285 691.177,206.785 692.5,183.5 Z"/></g>
<g><path style="opacity:1" fill="#2b8e33" d="M 11.5,254.5 C 58.1667,254.5 104.833,254.5 151.5,254.5C 151.833,277.51 151.5,300.51 150.5,323.5C 104.209,324.495 57.8757,324.828 11.5,324.5C 11.5,301.167 11.5,277.833 11.5,254.5 Z"/></g>
</svg>
